<svg id="Layer_1" data-name="Layer 1" xmlns="http://www.w3.org/2000/svg" viewBox="0 0 500 500"><defs><style>.cls-1,.cls-2{fill:#F4EEDD;}.cls-2{font-size:16.16px;font-family:Futura-Medium, Futura;font-weight:500;}</style></defs><title>LUNCH_BAR_LOGO_FINAL_est</title><path class="cls-1" d="M203.75,331.91a4.44,4.44,0,0,0-2.41,1.11c-3.11,3.85-8,4.81-9.77,5.07-2.27.32-4.32.49-4.59-1.36-.46-3.22,24.36-62.23,29.18-80.48,1.75-6.44,1.41-9.68,1.12-11.66l-.14-1c-.2-1.36,1.79-3.66,18.06-6,16.87-2.43,30.52-4.28,32.57,9.95,1.14,7.92-4.67,15.83-11,20.52-8.14,6.23-14.74,6.17-14.27,9.39.35,2.47,11.73,2.6,13.42,14.35,2.11,14.6-10.71,35.77-38.7,39.8C207.09,333.07,206.5,331.51,203.75,331.91Zm25.36-48.49-1.19.18c-1.44.2-1.67-.52-1.72-.89-.46-3.22,1.54-8.81,4.89-9.3,13.27-1.91,23.37-14.86,22-24.51-.85-5.94-6.21-5.79-9.32-5.35-4.66.68-7.43,1.83-9.19,4.87-8.21,14.19-27.24,65.93-26.37,72,.31,2.1,2.82,4.27,8.56,3.44,18.18-2.62,26-22.82,24.83-31C240.12,282.72,232.1,283,229.11,283.42Z"/><path class="cls-1" d="M293.61,298.83c-4.64.74-6.07-3.22-6.42-5.43-.11-.66-.05-1.69-.15-2.35s-.59-.81-.81-.78c-2.87.46-8.41,13.25-19,15-4.53.72-5.38-4.58-5.61-6-1.9-11.82,9.21-42.83,36.27-47.17.89-.15,9.94-.92,11,5.71.11.66.42,3.33-1.34,3.61-2.43.39-3.08-2.9-12.9-1.33-11.93,1.92-22.12,17.49-20.53,27.43.18,1.1,1.11,2.65,2.76,2.39,3.87-.62,10.62-7.26,15.82-20.78,0,0,.55-2.92,6.95-3.95,0,0,4.14-.32,4.37,1.11a1.1,1.1,0,0,1-.13.59s-9.54,20.34-9.38,30.51C294.53,298.23,294.05,298.76,293.61,298.83Z"/><path class="cls-1" d="M349.71,249.76a2.27,2.27,0,0,1,2.72,3.19h0a2.49,2.49,0,0,1-.2.32c-.21.27-4.74,8.54-5.48,11.49-1.16,4.62-2.71,6.77-3.95,7-2,.32-4.93-4.92-10.05-2.47-8.42,4-15.89,21.39-19,30-1.35,3.61-5.87,4.34-7.2,4.55-2.54.41-3.12-.4-3.19-.85-.55-3.42,13.63-44.21,18.41-46.91a14.17,14.17,0,0,1,5.44-2.12c1.43-.23,2.94,0,3.08.87.37,2.32-3.89,8.21-3.52,10.53a.77.77,0,0,0,.9.65c1-.16,1.62-1.17,2.22-1.71a102.35,102.35,0,0,1,10.72-9.43A34,34,0,0,1,349.71,249.76Z"/><path class="cls-1" d="M221.86,191.14c1.1-.18,3.33-.43,3.53.78a1.84,1.84,0,0,1-.19.94s-13,29.55-14.59,41.72c-.21,1.51-1.22,1.56-1.22,1.56-3.32.54-5-2.81-5.57-6.34-.28-1.66-.16-3.72-.25-4.27a.78.78,0,0,0-.9-.65,2.46,2.46,0,0,0-1.53,1.05c-8.08,10.84-12.58,14.52-19.1,15.59-2.2.36-5.92-.17-6.69-4.91C174,228.22,183.25,194.85,192,191a14.81,14.81,0,0,1,3.68-1.05c1.22-.2,2.6-.09,2.76.91.25,1.54-12.35,23.55-10.78,33.16.32,2,1.5,2.93,3,2.67,6.73-1.1,13.46-11.95,23-30.16C215.29,193.24,218.33,191.72,221.86,191.14Z"/><path class="cls-1" d="M250.62,230.48a1.37,1.37,0,0,1,.11-.7c1.66-3.67,12-27.6,11-33.78a1.83,1.83,0,0,0-2.09-1.69c-9.49,1.56-24.5,24.67-28.25,32.2-1.7,3.45-5.74,4.35-7.07,4.57-2.54.41-3-.52-3.1-1-.55-3.31,14-40.39,18.74-43.1a10.74,10.74,0,0,1,4.89-1.94c1.33-.22,2.69-.22,2.84.66.38,2.32-4,8.6-3.65,10.92a1.19,1.19,0,0,0,1.25.7,1.78,1.78,0,0,0,1-.62c6.54-7.09,15.24-15.55,24-17,1.32-.21,4.15-.23,4.86,4.08.91,5.52-9.92,45.73-21.18,47.59C251.41,231.82,250.73,231.14,250.62,230.48Z"/><path class="cls-1" d="M309.74,192.16c-.7,3-2.28,7.73-3.39,9a2.56,2.56,0,0,1-1.21.87c-2.65.44-4-1.83-4.4-4s.28-3.1.06-4.43a2.12,2.12,0,0,0-2.66-1.72c-9.27,1.52-14.08,16.48-12.94,23.43.7,4.31,3.08,7.77,9.16,6.78,5.41-.89,7.91-3.57,7.91-3.57a2.47,2.47,0,0,1,1.44-.91,1.27,1.27,0,0,1,1.41,1c.47,2.87-4.79,11.55-16.38,13.44-10.05,1.65-13.28-5-14.1-9.93C273,211.85,282,186.54,300.8,183.84c2.09-.3,5.46-.56,7.65,1.67C309.76,186.85,310.27,189.93,309.74,192.16Z"/><path class="cls-1" d="M338.37,172.29a224.53,224.53,0,0,1,9.17-21.14c.56-1,.21-2.19-4.21-1.49-9.55,1.51-9.19,3.53-9.81,6-.59,2.3-9.92,31.69-9.92,31.69-1.43,4.31-2.77,8.25-3.84,11.31,0,0-13.41,40-16.11,46.42a1.47,1.47,0,0,0-.19.93c.11.67,1,1.21,4.08.72,4.2-.67,6.39-1.13,7.72-4.85,2-6,17.7-37,27.64-38.58a1.75,1.75,0,0,1,1.92,1.4c.81,5.08-3.79,18.94-8.9,29.6a2.9,2.9,0,0,0-.25,1.29c.07.44.47.83,1.8.62a12,12,0,0,0,8-5.45c2-3.26,13.25-24.3,11.19-37.33-.53-3.32-2.48-4.93-5.57-4.44-8.62,1.36-20.8,17.44-20.8,17.44a4.37,4.37,0,0,1-2,1.46c-.66.1-1-.42-1.08-1.08-.25-1.31,2-9,2-9l3.46-10Z"/><path class="cls-1" d="M201.2,246.65c-.93-1.31-2.31-1.09-4,1.39-3,4.34-10.85,27.68-34.94,25.23a29.4,29.4,0,0,1-4.53-1.2,7.66,7.66,0,0,1-3.24-2.4,6.73,6.73,0,0,1-1.35-3.74c-.39-2.56,1.22-7.2,1.87-9.27l1.51-4.7,15.28-46.66c2.82-8.61,5.38-16.22,6.94-20.52l.13-.27a3.62,3.62,0,0,0,.52-2.08c-.21-1.28-1.69-2.35-6.64-1.53-10.72,1.75-12,4.18-11.8,5.33l.27,1.66c.34,2,.56,5.54-.83,11.53-.48,2.21-1.19,5-2,8.09,0,0-12.46,39.46-18.08,56.4a1.65,1.65,0,0,1-.54.78,1.6,1.6,0,0,1-1.13.36c-5.82-.41-21.15,4-16.86,14.63,3.77,9.32,17.7,7.33,24.6-.3l.64-.75h0c.95-.94,3.39,0,3.89.1,1.57.34,29.2,10.29,42.34-2.94,3.15-3.17,5.28-7.76,7-13.6C200.64,260.65,203.54,250,201.2,246.65Zm-64.07,28a.49.49,0,0,1-.13.12c-2.28,1.65-6.65,2.63-8.22,1.06-1-1-1-2.46.76-3.31a12.46,12.46,0,0,1,6.87-.64A1.75,1.75,0,0,1,137.13,274.67Z"/><path class="cls-1" d="M373.22,214.31a18.26,18.26,0,0,1,2.13,5.63c.47,1.95.91,3.9,1.29,5.86.78,3.93,1.36,7.9,1.77,11.89s.65,8,.65,12c0,2,0,4-.07,6l-.35,6a129.39,129.39,0,0,1-42,85.18,128.63,128.63,0,0,1-41.52,25.52,126.81,126.81,0,0,1-23.69,6.4A128.73,128.73,0,0,1,247,380.68a124.83,124.83,0,0,1-47.74-10.31c-1.87-.83-3.75-1.63-5.59-2.52l-5.4-2.89c-.9-.49-1.81-.94-2.69-1.47L183,361.86c-1.71-1.1-3.45-2.18-5.14-3.3l-4.91-3.64c-.81-.61-1.64-1.2-2.44-1.83l-2.32-2c-1.54-1.33-3.09-2.63-4.61-4l-4.34-4.27c-.72-.72-1.45-1.41-2.15-2.15l-2-2.27c-1.33-1.52-2.69-3-4-4.56l-3.69-4.81c-.61-.81-1.24-1.6-1.83-2.42l-1.67-2.52-3.32-5.05-3-5.26c-.49-.88-1-1.75-1.46-2.64s-.83-1.84-1.21-2.77a38.43,38.43,0,0,1-1.86-5.77,1.28,1.28,0,0,1,2.22-1.13l.06.07a37.44,37.44,0,0,1,3.5,4.78c.51.82,1,1.65,1.48,2.5l1.57,2.44L145,316.2l3.45,4.66,1.72,2.32c.61.74,1.25,1.47,1.88,2.2l3.76,4.39,4,4.11,2,2.05c.7.66,1.43,1.28,2.15,1.92l4.31,3.81,4.56,3.51,2.27,1.75c.78.55,1.6,1.06,2.39,1.59l4.78,3.16c1.65,1,3.32,1.89,5,2.83l2.48,1.42c.84.45,1.71.84,2.57,1.26l5.14,2.48c1.74.76,3.53,1.42,5.28,2.15a127.09,127.09,0,0,0,44.4,8.88,123.88,123.88,0,0,0,44.68-7.18A124.61,124.61,0,0,0,347,324.19a123.55,123.55,0,0,0,26.63-62.94l.55-5.78c.14-1.93.19-3.87.28-5.8.15-3.88,0-7.76-.19-11.63s-.67-7.74-1.29-11.58c-.3-1.92-.66-3.83-1.05-5.74a23,23,0,0,1-.75-5.85h0a1.11,1.11,0,0,1,1.15-1.07A1.13,1.13,0,0,1,373.22,214.31Z"/><path class="cls-1" d="M121.55,239.78a77,77,0,0,1,1.33-17.26,127.12,127.12,0,0,1,4.25-16.88,123.55,123.55,0,0,1,6.52-16.25,109.39,109.39,0,0,1,8.79-15.23c1.6-2.47,3.42-4.78,5.21-7.12s3.7-4.57,5.77-6.68,4.1-4.22,6.2-6.28c1.08-1,2.2-2,3.3-2.94l1.67-1.46,1.72-1.38a127.59,127.59,0,0,1,14.42-10.2,130,130,0,0,1,15.65-8.18l4.08-1.71,4.15-1.52c1.37-.53,2.78-1,4.19-1.4s2.8-.9,4.23-1.27a139.34,139.34,0,0,1,17.27-3.6,128.65,128.65,0,0,1,68.79,9.46c1.32.6,2.68,1.14,4,1.79l3.93,1.92,3.84,2.07c1.28.68,2.51,1.47,3.77,2.2.62.38,1.25.74,1.85,1.14l1.8,1.24a38.74,38.74,0,0,1,3.46,2.66c1.12.93,2.23,1.87,3.26,2.91s2,2.1,2.95,3.26a1.35,1.35,0,0,1-1.55,2.09l-.05,0c-1.36-.53-2.63-1.17-3.89-1.8-.62-.33-1.25-.64-1.89-1s-1.24-.64-1.85-1L315,145.47c-1.22-.66-2.41-1.35-3.64-2s-2.41-1.34-3.66-1.94L304,139.72l-3.79-1.67c-1.25-.56-2.55-1-3.83-1.54a124.74,124.74,0,0,0-15.75-4.9,137.29,137.29,0,0,0-16.22-2.74,125.6,125.6,0,0,0-64,10.18,119,119,0,0,0-14.46,7.57,117.12,117.12,0,0,0-13.33,9.44,127,127,0,0,0-12,11.07c-1.92,1.94-3.7,4-5.52,6s-3.51,4.18-5.12,6.39-3.2,4.43-4.79,6.67L143,189.69c-.76,1.14-1.46,2.32-2.14,3.52a116.92,116.92,0,0,0-7.4,14.76,122.65,122.65,0,0,0-5.39,15.7c-1.47,5.37-2.52,10.83-3.88,16.34v0a1.31,1.31,0,0,1-2.59-.27Z"/><path class="cls-1" d="M185.87,160.08l6.68,5.61-1.28-9.24,7,6.14-.94-8.75,1.75-1,1.43,14-6.88-6.06,1.27,9.13L184.12,161Z"/><path class="cls-1" d="M205.7,156.64a5.94,5.94,0,0,1,.25-4.79,6.22,6.22,0,0,1,3.6-3.28,6.36,6.36,0,0,1,8.11,3.77,6,6,0,0,1-.23,4.83,6.43,6.43,0,0,1-8.17,3.2A6,6,0,0,1,205.7,156.64Zm1.74-.61a4.45,4.45,0,0,0,2.42,2.65,4.32,4.32,0,0,0,3.36.15,4.38,4.38,0,0,0,2.58-2.35,4.72,4.72,0,0,0-2.22-6.13,4.53,4.53,0,0,0-6,2.2A4.38,4.38,0,0,0,207.44,156Z"/><path class="cls-1" d="M225.2,151.26l-5.46-5.81,2.06-.48,3.83,4.08,1.58-5.37,2.06-.49L227,150.83,228.2,156l-1.78.42Z"/><path class="cls-1" d="M244.42,141l3.45,8,3-8.83,3.47,8.6,3.08-8.24,2-.07-5,13.12L251,145.07l-3,8.74-5.61-12.76Z"/><path class="cls-1" d="M263.66,146.8a6,6,0,0,1,2.38-4.17,6.18,6.18,0,0,1,4.68-1.32,6.38,6.38,0,0,1,5.57,7,6,6,0,0,1-2.37,4.21,6.43,6.43,0,0,1-8.74-.8A6,6,0,0,1,263.66,146.8Zm1.84.23a4.4,4.4,0,0,0,1,3.45,4.33,4.33,0,0,0,2.94,1.65,4.38,4.38,0,0,0,3.36-.95,4.52,4.52,0,0,0,1.68-3.09,4.45,4.45,0,0,0-.92-3.39,4.53,4.53,0,0,0-6.36-.73A4.4,4.4,0,0,0,265.5,147Z"/><path class="cls-1" d="M283.55,150.73l-2.28-7.63,2.06.48,1.59,5.37,3.83-4.09,2.05.49-5.47,5.81-1.21,5.11-1.78-.42Z"/><path class="cls-1" d="M132.34,243.07a92.77,92.77,0,0,1,5.45-31.48A116,116,0,0,1,152.66,183a122,122,0,0,1,50-40.67,125,125,0,0,1,64.12-8.84A122.49,122.49,0,0,1,326.07,158a.5.5,0,0,1,.09.7.52.52,0,0,1-.71.1,120.59,120.59,0,0,0-59-22.75,122,122,0,0,0-62.14,10,119.07,119.07,0,0,0-63.58,66.61,158.33,158.33,0,0,0-8.1,30.45.17.17,0,0,1-.18.13A.15.15,0,0,1,132.34,243.07Z"/><path class="cls-1" d="M365.29,215a97.36,97.36,0,0,1,4,21.69,102.08,102.08,0,0,1,.34,11.06c0,1.84,0,3.69-.18,5.53l-.18,2.76-.09,1.39-.16,1.37a119.72,119.72,0,0,1-12.45,42.38,121.4,121.4,0,0,1-27,35.16A119.67,119.67,0,0,1,247.85,367l-5.57-.22c-.93-.06-1.86-.05-2.79-.15l-2.77-.32-5.54-.66-5.47-1-2.74-.52c-.9-.2-1.8-.47-2.7-.7L214.89,362c-1.77-.54-3.52-1.18-5.28-1.77l-2.63-.9c-.88-.29-1.72-.7-2.58-1.05l-5.11-2.17c-1.69-.77-3.32-1.66-5-2.49l-2.47-1.26c-.83-.41-1.6-.93-2.4-1.39l-4.76-2.86c-1.56-1-3.05-2.09-4.58-3.14l-2.27-1.58c-.76-.53-1.46-1.14-2.19-1.71l-4.32-3.47c-1.4-1.21-2.73-2.49-4.1-3.73l-2-1.87c-.67-.64-1.28-1.33-1.92-2l-3.81-4c-1.2-1.4-2.36-2.84-3.55-4.25l-1.76-2.13c-.55-.73-1.08-1.49-1.62-2.23l-3.23-4.49-2.92-4.68-1.46-2.34L143.63,304c-.86-1.63-1.7-3.26-2.49-4.92a.37.37,0,0,1,.66-.34h0c7.07,12.74,15.81,24.64,26.81,34.16,1.38,1.18,2.72,2.41,4.12,3.56l4.33,3.3c.72.53,1.42,1.12,2.18,1.62l2.27,1.49c1.52,1,3,2,4.55,3l4.73,2.68c.79.43,1.55.92,2.37,1.3l2.45,1.17c1.64.76,3.25,1.59,4.91,2.3l5,2c.84.32,1.66.7,2.53,1l2.58.82c1.72.54,3.43,1.13,5.16,1.62l5.26,1.28c.87.21,1.74.45,2.63.63l2.66.45,5.33.91,5.38.52,2.69.26c.9.07,1.8.07,2.7.11l5.4.17a119.6,119.6,0,0,0,105.84-63.35,116.77,116.77,0,0,0,13-41.15l.19-1.35.12-1.35.23-2.71c.2-1.81.23-3.62.3-5.44a104.14,104.14,0,0,0-.1-10.89,156.59,156.59,0,0,0-3-21.61.39.39,0,0,1,.76-.2Z"/><text class="cls-2" transform="translate(229.71 357.56) rotate(4.43)">E</text><text class="cls-2" transform="translate(241.44 358.36) rotate(-0.9)">S</text><text class="cls-2" transform="matrix(0.99, -0.1, 0.1, 0.99, 253.63, 358)">T</text><text class="cls-2" transform="matrix(0.99, -0.17, 0.17, 0.99, 263.78, 356.81)"> </text><text class="cls-2" transform="translate(271.18 355.59) rotate(-15.15)">2</text><text class="cls-2" transform="matrix(0.94, -0.34, 0.34, 0.94, 283.32, 352.3)">0</text><text class="cls-2" transform="translate(295.14 347.91) rotate(-25.41)">2</text><text class="cls-2" transform="translate(306.48 342.37) rotate(-31.06)">0</text></svg>
